<svg width="44" height="44" viewBox="0 0 44 44" fill="none" xmlns="http://www.w3.org/2000/svg">
<g clip-path="url(#clip0_10_20)">
<rect width="44" height="44" fill="white"/>
<path d="M44 0V44H0V0H44ZM40.3333 7.33333H3.66667V14.6667H11V22H18.3333V29.3333H25.6667V36.6667H40.3333V7.33333ZM29.3333 11V14.6667H25.6667V11H29.3333ZM22 14.6667V18.3333H18.3333V14.6667H22ZM14.6667 18.3333V22H11V18.3333H14.6667ZM7.33333 22V25.6667H3.66667V22H7.33333ZM36.6667 22V25.6667H33V22H36.6667ZM33 29.3333V33H29.3333V29.3333H33ZM25.6667 33V36.6667H22V33H25.6667ZM18.3333 36.6667V40.3333H14.6667V36.6667H18.3333ZM11 40.3333V44H7.33333V40.3333H11ZM25.6667 33V36.6667H22V33H25.6667ZM18.3333 33V36.6667H14.6667V33H18.3333Z" fill="#6200DE"/>
</g>
<defs>
<clipPath id="clip0_10_20">
<rect width="44" height="44" fill="white"/>
</clipPath>
</defs>
</svg>
